<svg version="1.1"
id="maeda-morisawa" xmlns:svg="http://www.w3.org/2000/svg" xmlns:rdf="http://www.w3.org/1999/02/22-rdf-syntax-ns#" xmlns:cc="http://creativecommons.org/ns#" xmlns:dc="http://purl.org/dc/elements/1.1/"
xmlns="http://www.w3.org/2000/svg" xmlns:xlink="http://www.w3.org/1999/xlink" x="0px" y="0px" width="670px" height="931px"
viewBox="-10 -10 670 931" xml:space="preserve">

<!-- @@ -->

 <rect x="0" y="511" width="650" height="400" fill="url(#gradient)" />
<linearGradient id="gradient" gradientUnits="userSpaceOnUse" x1="0" y1="511" x2="0" y2="911">
        <stop stop-opacity="0" stop-color="#FFFFFF" offset="0"/>
        <stop stop-opacity="0.3" stop-color="#0000C0" offset="1"/>
 </linearGradient>

 <defs>
	<symbol id="morisawa-logo">
		<path d="M69.653,142.142c-10.546-2.293-19.937-10.434-25.3-21.938c-3.633-7.78-4.634-12.833-4.634-23.349V89.36H0
		V53.323h39.719V36.044H0V0h158.863v36.044h-71.71v17.279h71.711V89.36H87.112l0.114,6.561c0.113,6.555,0.113,6.565,1.18,8.092
		c0.58,0.846,1.657,1.903,2.387,2.358l1.331,0.826l33.374,0.101l33.368,0.098v35.289l-43.483-0.028
		C80.7,142.632,71.441,142.53,69.653,142.142L69.653,142.142z"/>
		<path d="M308.533,60.681h28.316v26.479h42.292V60.681h42.288v20.606c0,19.728-0.031,20.667-0.719,22.021
		c-0.904,1.777-2.587,3.203-4.348,3.692c-0.85,0.234-7.811,0.378-18.372,0.378l-17.013,0.006v35.301h27.706
		c31.65,0,30.25,0.125,37.199-3.285c11.032-5.417,19.236-16.581,22.464-30.543c0.557-2.412,0.651-5.608,0.789-25.469l0.155-22.707
		h29.729V25.007h-29.781V0h-47.812v25.007h-42.285V0h-42.292v25.007h-28.317"/>
		<path d="M499.023,87.158h42.294V35.673h61.057l-0.104,33.613l-0.096,33.613l-1.144,1.412
		c-0.629,0.779-1.699,1.748-2.388,2.15c-1.202,0.711-2.012,0.74-23.037,0.836l-21.788,0.108v35.295l32.817-0.101l32.825-0.104
		l3.771-1.329c11.275-3.975,20.165-13.473,24.372-26.042c2.298-6.859,2.196-3.914,2.196-62.021V0H499.023v25.007V87.158z"/>
		<path d="M308.533,0h-47.435v101.75l-0.855,1.623c-0.473,0.892-1.562,2.113-2.425,2.724l-1.566,1.102l-23.135,0.102
		l-23.138,0.103v17.649v17.651l67.849-0.204l3.777-1.328c5.093-1.797,9.091-4.274,13.172-8.152
		c6.669-6.346,11.121-14.475,13.013-23.769c0.701-3.413,0.742-5.026,0.742-26.102C308.533,55.433,308.533,27.716,308.533,0L308.533,0
		z"/>
		<path d="M167.321,43.58V0h42.292v87.159h-42.292V43.58L167.321,43.58z"/>
	</symbol>



</defs>

</svg>