<?xml version="1.0" encoding="utf-8"?>
<svg version="1.1" id="Ebene_1" xmlns="http://www.w3.org/2000/svg" xmlns:xlink="http://www.w3.org/1999/xlink" x="0px" y="0px"
	 width="1300px" height="195px" viewBox="0 0 1300 195" enable-background="new 0 0 1300 195" xml:space="preserve">
<path display="none" fill="#FFFFFF" d="M92.81,134.521c-0.946-1.913-1.586-2.81-1.854-3.806
	c-4.682-17.405-9.395-34.804-13.946-52.243c-5.794-22.196-11.441-44.432-17.175-66.644c-0.656-2.541-1.676-4.153-5.021-4.105
	C38.653,7.951,22.489,7.892,6.328,7.772C2.94,7.747,1.604,8.77,1.609,12.331c0.079,56.817,0.089,113.635-0.022,170.451
	c-0.007,3.74,1.446,4.412,4.708,4.357c9.494-0.159,19-0.272,28.487,0.041c4.29,0.143,5.242-1.349,5.224-5.392
	c-0.147-33.823-0.087-67.646-0.073-101.47c0.001-1.84,0.151-3.679,0.231-5.518c1.35,0.956,1.952,1.909,2.231,2.949
	c5.451,20.253,10.846,40.521,16.293,60.774c3.957,14.714,8.057,29.391,11.902,44.133c0.918,3.518,2.611,4.611,6.226,4.517
	c9.989-0.264,19.997-0.29,29.985,0.013c3.617,0.11,5.046-1.358,5.871-4.454c7.425-27.864,14.859-55.726,22.361-83.569
	c2.388-8.859,4.987-17.662,7.49-26.49c0.38,0.06,0.76,0.12,1.14,0.181c0,1.964,0,3.928,0,5.892c0,34.157,0.103,68.314-0.115,102.47
	c-0.031,4.939,1.476,6.162,6.183,5.975c9.149-0.365,18.335-0.365,27.484,0.001c4.647,0.186,5.825-1.257,5.809-5.836
	c-0.169-45.486-0.103-90.974-0.103-136.461c0-10.997-0.073-21.994,0.048-32.989c0.031-2.91-0.709-4.163-3.9-4.138
	c-16.494,0.129-32.99-0.001-49.483,0.179c-1.312,0.015-3.462,1.467-3.781,2.642c-7.173,26.404-14.142,52.863-21.153,79.312
	C100.806,104.407,96.952,118.912,92.81,134.521z M994.017,128.469c-1.137-1.692-1.781-2.281-1.973-2.992
	c-3.411-12.658-6.776-25.328-10.133-38.001c-6.712-25.344-13.399-50.693-20.14-76.03c-0.63-2.368-1.776-3.799-4.853-3.72
	c-10.323,0.266-20.659,0.082-30.989,0.134c-1.045,0.005-2.088,0.432-2.974,0.627c-0.121,0.774-0.291,1.135-0.206,1.418
	c8.224,27.302,16.507,54.585,24.693,81.898c4.517,15.069,8.802,30.209,13.32,45.279c4.707,15.697,9.601,31.339,14.333,47.028
	c0.804,2.667,1.849,4.16,5.106,4.061c8.657-0.263,17.328-0.179,25.99-0.038c2.854,0.047,4.052-1.035,4.774-3.765
	c9.941-37.54,19.984-75.054,30.042-112.563c0.168-0.628,0.821-1.126,1.781-2.382c4.104,15.13,8.03,29.434,11.861,43.762
	c6.389,23.901,12.656,47.835,19.226,71.687c0.382,1.386,2.967,3.006,4.582,3.067c8.153,0.312,16.337-0.123,24.483,0.257
	c4.111,0.192,5.866-1.297,6.972-5.042c4.503-15.246,9.295-30.406,13.85-45.638c11.408-38.153,22.75-76.325,34.103-114.494
	c1.428-4.798,2.763-9.623,4.353-15.179c-12.558,0-24.34-0.1-36.114,0.16c-1.133,0.024-2.85,2.11-3.229,3.524
	c-9.496,35.453-18.835,70.949-28.255,106.423c-0.865,3.258-2.085,6.422-3.14,9.629c-0.377-0.105-0.753-0.21-1.129-0.315
	c-9.589-39.771-19.177-79.541-28.72-119.122c-13.268,0-25.862,0-38.644,0C1013.383,48.041,1003.837,87.687,994.017,128.469z
	 M525.837,105.909c4.164-3.143,8.206-5.73,11.699-8.92c8.467-7.732,13.104-17.291,14.676-28.857
	c1.646-12.109,0.208-23.381-6.038-33.734c-11.503-19.071-30.256-25.568-50.893-26.342c-25.627-0.961-51.318-0.102-76.979-0.347
	c-4.755-0.046-5.743,1.452-5.731,5.91c0.142,55.824,0.093,111.648,0.093,167.474c0,1.781,0,3.563,0,5.707
	c2.207,0.115,3.824,0.269,5.44,0.272c10.332,0.021,20.669-0.188,30.992,0.104c4.419,0.126,6.029-0.889,5.947-5.705
	c-0.306-17.825-0.128-35.659-0.111-53.489c0.002-1.782,0.146-3.565,0.244-5.805c10.985,0,21.642-0.531,32.195,0.271
	c4.013,0.306,8.274,3.086,11.581,5.773c7.651,6.219,8.88,15.495,9.604,24.521c0.793,9.904,0.914,19.872,1.032,29.816
	c0.042,3.531,1.301,4.624,4.716,4.577c10.997-0.149,21.996-0.042,32.994-0.077c1.093-0.004,2.185-0.302,2.761-0.388
	c-0.729-10.68-1.452-20.985-2.13-31.295c-0.368-5.605-0.578-11.223-1.004-16.824C545.832,124.151,538.725,113.522,525.837,105.909z
	 M394.922,97.528c-1.266-55.329-43.248-97.431-97.656-97.281c-55.365,0.152-97.137,42.975-97.11,97.236
	c0.027,55.081,42.52,96.836,96.625,97.267C351.707,195.187,393.779,152.553,394.922,97.528z M776.181,64.675
	c-0.442-4.124-0.606-8.022-1.312-11.821c-3.521-18.963-12.92-33.711-30.903-42.044c-19.795-9.174-40.328-10.975-61.633-6.421
	c-17.238,3.685-31.827,11.492-40.729,27.067C628.081,55.114,630.991,79.6,654.38,96.561c9.955,7.22,21.38,10.564,33.049,13.563
	c13.941,3.583,28.138,6.162,41.349,12.457c12.897,6.146,15.445,23.722,1.8,33.018c-12.713,8.659-27.105,8.919-41.574,4.279
	c-10.098-3.239-17.209-9.52-19.558-20.23c-0.903-4.122-1.39-8.335-2.04-12.353c-12.894,0-25.428,0-38.065,0
	c0.122,2.758,0.296,5.045,0.312,7.332c0.164,22.144,10.562,38.363,29.832,48.281c22.421,11.542,46.59,13.168,70.867,7.828
	c20.166-4.436,36.56-15.051,45.219-34.861c8.167-18.686,5.597-38.665-9.141-54.086c-10.434-10.918-24.261-15.368-38.414-18.967
	c-14.281-3.632-28.662-6.923-42.809-11.021c-9.21-2.668-13.688-11.397-11.242-20.473c2.433-9.025,9.053-14.598,17.731-15.934
	c8.167-1.258,16.855-1.199,25.022,0.109c10.934,1.752,18.166,8.816,20.545,19.987c0.638,2.994,0.529,6.146,0.791,9.588
	c11.759,0,23.064,0.007,34.369-0.014C773.383,65.064,774.343,64.873,776.181,64.675z M784.143,187.08
	c13.17,0,25.315,0.125,37.452-0.167c1.435-0.034,3.566-2.101,4.096-3.658c2.949-8.686,5.613-17.474,8.133-26.295
	c0.824-2.888,2.188-3.953,5.214-3.934c18.157,0.118,36.315,0.113,54.473,0.005c2.985-0.018,4.374,0.938,5.211,3.897
	c2.543,8.987,5.357,17.901,8.268,26.778c0.427,1.301,1.929,3.191,2.961,3.21c12.599,0.222,25.202,0.145,38.004,0.145
	c-0.113-1.357-0.021-2.227-0.273-2.979c-19.271-57.531-38.579-115.051-57.838-172.586c-0.908-2.713-2.276-3.812-5.336-3.756
	c-11.49,0.212-22.996,0.35-34.478-0.041c-4.827-0.165-6.891,1.422-8.39,5.966c-15.824,47.974-31.882,95.871-47.846,143.799
	C790.592,167.071,787.514,176.721,784.143,187.08z M1298.412,187.08c-0.269-1.596-0.305-2.601-0.609-3.516
	c-19.109-57.272-38.275-114.525-57.279-171.833c-1.067-3.218-2.627-3.994-5.691-3.959c-11.664,0.131-23.337,0.265-34.993-0.059
	c-4.276-0.118-5.94,1.371-7.255,5.324c-16.411,49.353-33.026,98.638-49.565,147.947c-2.836,8.457-5.559,16.951-8.55,26.09
	c13.154,0,25.455,0.109,37.747-0.163c1.279-0.028,3.132-2.107,3.656-3.606c3.034-8.666,5.861-17.411,8.513-26.203
	c0.928-3.08,2.51-4.104,5.686-4.08c17.83,0.129,35.663,0.134,53.493-0.004c3.216-0.024,4.737,1.097,5.655,4.127
	c2.664,8.789,5.446,17.549,8.524,26.199c0.55,1.544,2.714,3.537,4.175,3.572C1273.891,187.206,1285.874,187.08,1298.412,187.08z
	 M571.664,186.312c1.051,0.383,1.505,0.691,1.96,0.693c11.665,0.043,23.332-0.03,34.995,0.121c3.77,0.049,3.314-2.346,3.301-4.673
	c-0.331-56.773-0.7-113.547-0.919-170.32c-0.015-3.728-1.434-4.419-4.704-4.364c-9.664,0.159-19.343,0.33-28.992-0.06
	c-4.78-0.193-5.744,1.461-5.733,5.913c0.141,55.829,0.093,111.658,0.093,167.487C571.664,182.89,571.664,184.671,571.664,186.312z"
	/>
<path fill-rule="evenodd" clip-rule="evenodd" d="M92.81,134.521c4.143-15.609,7.996-30.114,11.842-44.622
	c7.012-26.448,13.98-52.907,21.153-79.312c0.319-1.175,2.47-2.627,3.781-2.642c16.493-0.18,32.989-0.05,49.483-0.179
	c3.191-0.025,3.932,1.228,3.9,4.138c-0.121,10.995-0.048,21.992-0.048,32.989c0,45.487-0.066,90.975,0.103,136.461
	c0.017,4.579-1.161,6.021-5.809,5.836c-9.149-0.366-18.335-0.366-27.484-0.001c-4.707,0.188-6.214-1.035-6.183-5.975
	c0.218-34.155,0.115-68.312,0.115-102.47c0-1.964,0-3.928,0-5.892c-0.38-0.061-0.76-0.121-1.14-0.181
	c-2.503,8.828-5.103,17.631-7.49,26.49c-7.502,27.844-14.937,55.705-22.361,83.569c-0.825,3.096-2.254,4.564-5.871,4.454
	c-9.988-0.303-19.996-0.276-29.985-0.013c-3.614,0.095-5.308-0.999-6.226-4.517c-3.846-14.742-7.945-29.419-11.902-44.133
	c-5.447-20.254-10.842-40.521-16.293-60.774c-0.28-1.04-0.882-1.993-2.231-2.949c-0.081,1.839-0.23,3.678-0.231,5.518
	c-0.014,33.823-0.074,67.646,0.073,101.47c0.018,4.043-0.935,5.534-5.224,5.392c-9.486-0.313-18.993-0.2-28.487-0.041
	c-3.262,0.055-4.715-0.617-4.708-4.357C1.699,125.966,1.688,69.148,1.609,12.331C1.604,8.77,2.94,7.747,6.328,7.772
	c16.161,0.119,32.325,0.179,48.484-0.049c3.346-0.048,4.365,1.564,5.021,4.105c5.733,22.212,11.381,44.447,17.175,66.644
	c4.552,17.439,9.265,34.838,13.946,52.243C91.224,131.712,91.863,132.608,92.81,134.521z"/>
<path fill-rule="evenodd" clip-rule="evenodd" d="M994.017,128.469c9.82-40.782,19.366-80.428,28.974-120.327
	c12.781,0,25.376,0,38.644,0c9.543,39.581,19.131,79.352,28.72,119.122c0.376,0.105,0.752,0.21,1.129,0.315
	c1.055-3.207,2.274-6.371,3.14-9.629c9.42-35.474,18.759-70.97,28.255-106.423c0.379-1.414,2.096-3.5,3.229-3.524
	c11.774-0.26,23.557-0.16,36.114-0.16c-1.59,5.556-2.925,10.381-4.353,15.179c-11.353,38.169-22.694,76.341-34.103,114.494
	c-4.555,15.231-9.347,30.392-13.85,45.638c-1.105,3.745-2.86,5.234-6.972,5.042c-8.146-0.38-16.33,0.056-24.483-0.257
	c-1.615-0.062-4.2-1.682-4.582-3.067c-6.569-23.852-12.837-47.785-19.226-71.687c-3.831-14.328-7.757-28.632-11.861-43.762
	c-0.96,1.256-1.613,1.754-1.781,2.382c-10.058,37.51-20.101,75.023-30.042,112.563c-0.723,2.729-1.921,3.812-4.774,3.765
	c-8.662-0.141-17.333-0.225-25.99,0.038c-3.258,0.1-4.303-1.394-5.106-4.061c-4.732-15.689-9.626-31.331-14.333-47.028
	c-4.519-15.07-8.804-30.21-13.32-45.279c-8.187-27.313-16.47-54.597-24.693-81.898c-0.085-0.283,0.085-0.644,0.206-1.418
	c0.886-0.195,1.929-0.622,2.974-0.627c10.33-0.052,20.666,0.132,30.989-0.134c3.076-0.079,4.223,1.352,4.853,3.72
	c6.74,25.337,13.428,50.687,20.14,76.03c3.356,12.673,6.722,25.343,10.133,38.001C992.235,126.188,992.88,126.776,994.017,128.469z"
	/>
<path fill-rule="evenodd" clip-rule="evenodd" d="M525.837,105.909c12.888,7.613,19.995,18.242,21.089,32.645
	c0.426,5.602,0.636,11.219,1.004,16.824c0.678,10.31,1.4,20.615,2.13,31.295c-0.576,0.086-1.668,0.384-2.761,0.388
	c-10.998,0.035-21.997-0.072-32.994,0.077c-3.415,0.047-4.674-1.046-4.716-4.577c-0.118-9.944-0.239-19.912-1.032-29.816
	c-0.724-9.026-1.952-18.303-9.604-24.521c-3.307-2.688-7.568-5.468-11.581-5.773c-10.554-0.803-21.21-0.271-32.195-0.271
	c-0.099,2.239-0.242,4.022-0.244,5.805c-0.017,17.83-0.194,35.664,0.111,53.489c0.082,4.816-1.528,5.831-5.947,5.705
	c-10.323-0.293-20.66-0.083-30.992-0.104c-1.616-0.004-3.233-0.157-5.44-0.272c0-2.144,0-3.926,0-5.707
	c0-55.825,0.049-111.649-0.093-167.474c-0.012-4.458,0.977-5.956,5.731-5.91c25.66,0.245,51.352-0.614,76.979,0.347
	c20.637,0.773,39.39,7.271,50.893,26.342c6.246,10.354,7.684,21.625,6.038,33.734c-1.571,11.566-6.209,21.125-14.676,28.857
	C534.043,100.179,530.001,102.767,525.837,105.909z M456.076,84.527c1.748,0.119,3.038,0.283,4.329,0.283
	c11.164,0.006,22.43,0.913,33.464-0.292c11.235-1.228,20.114-7.471,18.836-24.132c-0.648-8.459-9.853-16.781-19.943-17.273
	c-9.766-0.478-19.544-0.713-29.317-1.019c-2.407-0.075-4.818-0.012-7.368-0.012C456.076,56.62,456.076,70.26,456.076,84.527z"/>
<path fill-rule="evenodd" clip-rule="evenodd" d="M394.922,97.528c-1.143,55.024-43.215,97.658-98.142,97.222
	c-54.105-0.431-96.598-42.186-96.625-97.267c-0.026-54.262,41.745-97.084,97.11-97.236C351.674,0.098,393.656,42.199,394.922,97.528
	z M358.664,97.692c0.489-34.332-27.066-60.999-60.346-61.552c-34.822-0.578-62.342,27.537-62.305,61.198
	c0.037,34.351,26.961,60.683,59.987,61.534C331.061,159.776,359.394,131.011,358.664,97.692z"/>
<path fill-rule="evenodd" clip-rule="evenodd" d="M776.181,64.675c-1.838,0.198-2.798,0.39-3.757,0.392
	c-11.305,0.021-22.61,0.014-34.369,0.014c-0.262-3.441-0.153-6.594-0.791-9.588c-2.379-11.171-9.611-18.235-20.545-19.987
	c-8.167-1.309-16.855-1.367-25.022-0.109c-8.679,1.336-15.299,6.908-17.731,15.934c-2.445,9.075,2.032,17.805,11.242,20.473
	c14.146,4.098,28.527,7.389,42.809,11.021c14.153,3.599,27.98,8.049,38.414,18.967c14.737,15.421,17.308,35.4,9.141,54.086
	c-8.659,19.811-25.053,30.426-45.219,34.861c-24.277,5.34-48.446,3.714-70.867-7.828c-19.27-9.918-29.668-26.138-29.832-48.281
	c-0.017-2.287-0.19-4.574-0.312-7.332c12.638,0,25.172,0,38.065,0c0.65,4.018,1.137,8.23,2.04,12.353
	c2.349,10.711,9.46,16.991,19.558,20.23c14.469,4.64,28.861,4.38,41.574-4.279c13.646-9.296,11.098-26.871-1.8-33.018
	c-13.211-6.295-27.407-8.874-41.349-12.457c-11.669-2.999-23.094-6.344-33.049-13.563c-23.389-16.961-26.299-41.446-12.776-65.104
	c8.902-15.575,23.491-23.383,40.729-27.067c21.305-4.554,41.838-2.753,61.633,6.421c17.983,8.333,27.383,23.081,30.903,42.044
	C775.574,56.652,775.738,60.551,776.181,64.675z"/>
<path fill-rule="evenodd" clip-rule="evenodd" d="M784.143,187.08c3.371-10.359,6.449-20.009,9.65-29.616
	c15.964-47.928,32.021-95.825,47.846-143.799c1.499-4.544,3.562-6.131,8.39-5.966c11.481,0.391,22.987,0.253,34.478,0.041
	c3.06-0.057,4.428,1.043,5.336,3.756c19.259,57.535,38.566,115.055,57.838,172.586c0.252,0.753,0.16,1.622,0.273,2.979
	c-12.802,0-25.405,0.077-38.004-0.145c-1.032-0.019-2.534-1.909-2.961-3.21c-2.91-8.877-5.725-17.791-8.268-26.778
	c-0.837-2.959-2.226-3.915-5.211-3.897c-18.157,0.108-36.315,0.113-54.473-0.005c-3.026-0.02-4.39,1.046-5.214,3.934
	c-2.52,8.821-5.184,17.609-8.133,26.295c-0.529,1.558-2.661,3.624-4.096,3.658C809.458,187.205,797.312,187.08,784.143,187.08z
	 M845.884,118.32c13.851,0,27.154,0,40.836,0c-6.669-22.146-13.166-43.721-19.662-65.295c-0.534,0.046-1.068,0.091-1.603,0.137
	C858.987,74.692,852.521,96.223,845.884,118.32z"/>
<path fill-rule="evenodd" clip-rule="evenodd" d="M1298.412,187.08c-12.538,0-24.521,0.126-36.494-0.163
	c-1.461-0.035-3.625-2.028-4.175-3.572c-3.078-8.65-5.86-17.41-8.524-26.199c-0.918-3.03-2.439-4.151-5.655-4.127
	c-17.83,0.138-35.663,0.133-53.493,0.004c-3.176-0.023-4.758,1-5.686,4.08c-2.651,8.792-5.479,17.537-8.513,26.203
	c-0.524,1.499-2.377,3.578-3.656,3.606c-12.292,0.272-24.593,0.163-37.747,0.163c2.991-9.139,5.714-17.633,8.55-26.09
	c16.539-49.31,33.154-98.595,49.565-147.947c1.314-3.953,2.979-5.442,7.255-5.324c11.656,0.323,23.329,0.189,34.993,0.059
	c3.064-0.035,4.624,0.741,5.691,3.959c19.004,57.308,38.17,114.561,57.279,171.833
	C1298.107,184.479,1298.144,185.484,1298.412,187.08z M1217.315,52.393c-0.411-0.015-0.822-0.029-1.233-0.044
	c-6.547,21.891-13.095,43.781-19.775,66.117c14.219,0,27.098,0,40.799,0C1230.397,96.07,1223.856,74.231,1217.315,52.393z"/>
<path fill-rule="evenodd" clip-rule="evenodd" d="M571.664,186.312c0-1.641,0-3.422,0-5.202c0-55.829,0.048-111.658-0.093-167.487
	c-0.011-4.452,0.953-6.106,5.733-5.913c9.649,0.39,19.328,0.219,28.992,0.06c3.271-0.055,4.689,0.637,4.704,4.364
	c0.219,56.773,0.588,113.547,0.919,170.32c0.014,2.327,0.469,4.722-3.301,4.673c-11.663-0.151-23.33-0.078-34.995-0.121
	C573.169,187.003,572.715,186.694,571.664,186.312z"/>
<g>
</g>
<g>
</g>
<g>
</g>
<g>
</g>
<g>
</g>
<g>
</g>
<g>
</g>
<g>
</g>
<g>
</g>
<g>
</g>
<g>
</g>
<g>
</g>
<g>
</g>
<g>
</g>
<g>
</g>
</svg>
