<?xml version="1.0" encoding="utf-8"?>
<!-- Generator: Adobe Illustrator 16.0.0, SVG Export Plug-In . SVG Version: 6.00 Build 0)  -->
<!DOCTYPE svg PUBLIC "-//W3C//DTD SVG 1.1//EN" "http://www.w3.org/Graphics/SVG/1.1/DTD/svg11.dtd">
<svg version="1.1" id="Ebene_1" xmlns="http://www.w3.org/2000/svg" xmlns:xlink="http://www.w3.org/1999/xlink" x="0px" y="0px"
	 width="650px" height="100px" viewBox="0 0 650 100" enable-background="new 0 0 650 100" xml:space="preserve">
<g>
	<path fill="none" stroke="#000000" stroke-miterlimit="10" d="M604.277,31.443c-2.076,7.824-4.008,15.095-5.936,22.365
		c-3.515,13.258-7.008,26.521-10.604,39.754c-0.158,0.588-1.238,1.317-1.896,1.324c-8.266,0.09-16.534,0.024-24.802,0.09
		c-1.6,0.013-1.971-0.615-1.955-2.074c0.062-5.51,0.023-11.022,0.023-16.534c0-22.8,0.033-45.599-0.053-68.397
		c-0.007-2.296,0.582-3.02,2.912-2.927c4.586,0.185,9.189,0.185,13.776,0.002c2.358-0.095,3.114,0.519,3.098,2.994
		c-0.108,17.118-0.057,34.239-0.057,51.36c0,0.984,0,1.969,0,2.953c0.19,0.03,0.381,0.061,0.569,0.09
		c1.256-4.424,2.559-8.836,3.756-13.276c3.76-13.956,7.486-27.922,11.207-41.888c0.414-1.553,1.131-2.287,2.943-2.233
		c5.006,0.152,10.022,0.14,15.028,0.009c1.812-0.049,2.661,0.5,3.121,2.262c1.928,7.391,3.981,14.746,5.965,22.123
		c2.729,10.149,5.435,20.309,8.167,30.459c0.141,0.522,0.441,1,1.118,1.479c0.04-0.921,0.116-1.843,0.116-2.766
		c0.007-16.952,0.037-33.906-0.037-50.859c-0.008-2.025,0.469-2.773,2.617-2.702c4.756,0.157,9.521,0.101,14.279,0.021
		c1.639-0.027,2.365,0.31,2.363,2.185c-0.057,28.478-0.051,56.956-0.012,85.435c0.003,1.785-0.668,2.297-2.364,2.285
		c-8.101-0.061-16.202-0.091-24.302,0.024c-1.678,0.022-2.188-0.784-2.518-2.058c-2.873-11.133-5.705-22.279-8.606-33.403
		c-2.282-8.742-4.646-17.462-6.991-26.187C605.072,32.854,604.751,32.402,604.277,31.443z"/>
	<path fill="none" stroke="#000000" stroke-miterlimit="10" d="M152.571,34.479c-4.921,20.441-9.707,40.312-14.522,60.312
		c-6.406,0-12.719,0-19.369,0c-4.783-19.839-9.589-39.773-14.394-59.707c-0.189-0.055-0.378-0.105-0.567-0.159
		c-0.527,1.607-1.14,3.193-1.572,4.827c-4.722,17.78-9.402,35.571-14.161,53.341c-0.189,0.709-1.053,1.755-1.619,1.767
		c-5.902,0.131-11.808,0.08-18.102,0.08c0.796-2.783,1.466-5.203,2.182-7.607c5.689-19.131,11.375-38.264,17.093-57.389
		c2.283-7.633,4.685-15.232,6.942-22.875c0.555-1.877,1.433-2.623,3.494-2.524c4.082,0.188,8.186-0.03,12.271,0.127
		c0.81,0.031,2.104,0.843,2.297,1.538c3.293,11.955,6.435,23.951,9.637,35.932c1.921,7.182,3.889,14.352,5.944,21.935
		c0.481-0.63,0.81-0.88,0.895-1.194c5.04-18.801,10.073-37.604,15.058-56.42c0.362-1.367,0.963-1.91,2.392-1.886
		c4.345,0.069,8.688,0.11,13.028-0.021c1.633-0.05,2.157,0.698,2.56,2.035c2.372,7.864,4.825,15.704,7.185,23.572
		c2.265,7.553,4.413,15.143,6.677,22.695c4.104,13.689,8.256,27.365,12.377,41.049c0.043,0.143-0.043,0.322-0.104,0.711
		c-0.443,0.098-0.968,0.311-1.491,0.314c-5.177,0.024-10.357-0.065-15.531,0.067c-1.543,0.039-2.116-0.679-2.433-1.865
		c-3.379-12.7-6.73-25.405-10.096-38.106c-1.683-6.354-3.368-12.704-5.076-19.049C153.463,35.622,153.141,35.326,152.571,34.479z"/>
	<path fill="none" stroke="#000000" stroke-miterlimit="10" d="M387.234,45.785c-6.461-3.814-10.022-9.145-10.57-16.362
		c-0.214-2.807-0.318-5.623-0.503-8.433c-0.341-5.167-0.702-10.333-1.068-15.686c0.289-0.043,0.837-0.193,1.384-0.195
		c5.514-0.018,11.026,0.037,16.537-0.039c1.713-0.022,2.344,0.525,2.364,2.295c0.06,4.984,0.12,9.98,0.517,14.945
		c0.363,4.523,0.979,9.174,4.814,12.291c1.657,1.347,3.793,2.739,5.805,2.894c5.289,0.401,10.631,0.137,16.137,0.137
		c0.05-1.123,0.123-2.016,0.123-2.909c0.009-8.938,0.097-17.877-0.056-26.811c-0.042-2.414,0.767-2.923,2.979-2.86
		c5.175,0.146,10.354,0.042,15.533,0.054c0.812,0.002,1.621,0.078,2.729,0.136c0,1.075,0,1.969,0,2.86
		c0,27.98-0.023,55.961,0.047,83.942c0.005,2.233-0.49,2.983-2.873,2.962c-12.861-0.123-25.738,0.309-38.584-0.174
		c-10.344-0.389-19.742-3.645-25.508-13.203c-3.131-5.189-3.852-10.838-3.025-16.908c0.787-5.797,3.11-10.589,7.354-14.464
		C383.121,48.658,385.146,47.361,387.234,45.785z M422.199,56.503c-0.875-0.06-1.521-0.142-2.17-0.142
		c-5.596-0.004-11.241-0.459-16.772,0.146c-5.632,0.616-10.082,3.745-9.44,12.095c0.326,4.241,4.938,8.412,9.996,8.658
		c4.896,0.239,9.795,0.357,14.694,0.51c1.207,0.039,2.416,0.006,3.692,0.006C422.199,70.491,422.199,63.654,422.199,56.503z"/>
	<path fill="none" stroke="#000000" stroke-miterlimit="10" d="M452.852,49.987c0.572-27.581,21.66-48.95,49.189-48.731
		c27.12,0.217,48.418,21.145,48.432,48.753c0.014,27.197-20.924,48.661-48.675,48.737C474.527,98.82,453.486,77.719,452.852,49.987z
		 M471.023,49.904c-0.244,17.208,13.566,30.575,30.246,30.851c17.455,0.29,31.248-13.802,31.23-30.674
		c-0.02-17.217-13.516-30.416-30.068-30.843C484.859,18.785,470.659,33.204,471.023,49.904z"/>
	<path fill="none" stroke="#000000" stroke-miterlimit="10" d="M261.755,66.453c0.921-0.1,1.402-0.195,1.883-0.196
		c5.666-0.011,11.333-0.007,17.229-0.007c0.13,1.725,0.076,3.305,0.396,4.805c1.192,5.6,4.817,9.141,10.298,10.02
		c4.094,0.656,8.448,0.686,12.542,0.055c4.351-0.669,7.668-3.461,8.888-7.984c1.226-4.549-1.02-8.926-5.636-10.264
		c-7.09-2.054-14.3-3.703-21.455-5.521c-7.096-1.805-14.024-4.035-19.255-9.508c-7.387-7.729-8.676-17.744-4.582-27.11
		c4.342-9.929,12.559-15.25,22.665-17.474c12.17-2.675,24.282-1.86,35.521,3.924c9.657,4.973,14.87,13.102,14.953,24.201
		c0.008,1.146,0.095,2.291,0.156,3.674c-6.334,0-12.617,0-19.08,0c-0.326-2.012-0.569-4.125-1.022-6.19
		c-1.177-5.368-4.741-8.517-9.803-10.142c-7.252-2.324-14.465-2.194-20.838,2.146c-6.84,4.659-5.562,13.469,0.901,16.551
		c6.622,3.153,13.736,4.446,20.727,6.242c5.848,1.503,11.574,3.18,16.563,6.798c11.724,8.5,13.182,20.775,6.403,32.631
		c-4.463,7.808-11.775,11.721-20.415,13.568c-10.678,2.281-20.97,1.379-30.892-3.219c-9.015-4.178-13.726-11.568-15.488-21.073
		C262.059,70.475,261.977,68.521,261.755,66.453z"/>
	<path fill="none" stroke="#000000" stroke-miterlimit="10" d="M257.764,5.1c-1.688,5.192-3.23,10.029-4.836,14.846
		c-8.002,24.021-16.051,48.031-23.981,72.076c-0.751,2.276-1.785,3.072-4.204,2.99c-5.755-0.195-11.522-0.127-17.281-0.021
		c-1.534,0.028-2.219-0.522-2.675-1.882c-9.652-28.838-19.33-57.668-28.991-86.506c-0.125-0.377-0.078-0.812-0.136-1.492
		c6.416,0,12.732-0.039,19.049,0.072c0.517,0.01,1.271,0.957,1.484,1.608c1.459,4.449,2.868,8.917,4.144,13.422
		c0.419,1.483,1.115,1.962,2.611,1.954c9.102-0.055,18.202-0.059,27.304,0.002c1.517,0.01,2.2-0.523,2.613-1.972
		c1.262-4.421,2.598-8.826,4.076-13.181c0.266-0.779,1.333-1.815,2.053-1.832C245.076,5.038,251.164,5.1,257.764,5.1z
		 M226.819,39.564c-6.943,0-13.611,0-20.47,0c3.345,11.101,6.601,21.914,9.855,32.729c0.268-0.023,0.535-0.046,0.804-0.07
		C220.25,61.432,223.492,50.641,226.819,39.564z"/>
	<path fill="none" stroke="#000000" stroke-miterlimit="10" d="M0,5.1c6.285,0,12.291-0.062,18.292,0.084
		c0.732,0.018,1.817,1.016,2.093,1.789c1.544,4.338,2.938,8.728,4.271,13.131c0.46,1.521,1.224,2.082,2.836,2.069
		c8.938-0.069,17.875-0.067,26.811-0.002c1.594,0.011,2.387-0.502,2.853-2.045c1.329-4.405,2.745-8.79,4.266-13.134
		c0.264-0.752,1.191-1.794,1.833-1.809c6.161-0.137,12.327-0.08,18.919-0.08c-1.499,4.578-2.863,8.838-4.285,13.076
		c-8.29,24.715-16.616,49.418-24.842,74.154c-0.66,1.982-1.494,2.729-3.637,2.668c-5.843-0.162-11.693-0.095-17.54-0.029
		c-1.535,0.018-2.317-0.371-2.854-1.983C19.492,64.266,9.884,35.568,0.305,6.861C0.154,6.404,0.135,5.9,0,5.1z M40.648,72.609
		c0.205,0.008,0.412,0.015,0.617,0.021c3.282-10.973,6.564-21.943,9.913-33.14c-7.127,0-13.583,0-20.448,0
		C34.091,50.717,37.371,61.664,40.648,72.609z"/>
	<path fill="none" stroke="#000000" stroke-miterlimit="10" d="M364.264,5.484c0,0.822,0,1.716,0,2.607
		c0,27.983-0.023,55.967,0.047,83.949c0.004,2.232-0.479,3.061-2.875,2.964c-4.836-0.194-9.688-0.11-14.53-0.03
		c-1.64,0.027-2.351-0.317-2.357-2.188c-0.108-28.456-0.294-56.912-0.461-85.369c-0.007-1.165-0.234-2.365,1.654-2.341
		c5.847,0.075,11.692,0.038,17.542,0.06C363.509,5.139,363.738,5.293,364.264,5.484z"/>
</g>
</svg>
