<?xml version="1.0" encoding="utf-8"?>
<!-- Generator: Adobe Illustrator 16.0.0, SVG Export Plug-In . SVG Version: 6.00 Build 0)  -->
<!DOCTYPE svg PUBLIC "-//W3C//DTD SVG 1.1//EN" "http://www.w3.org/Graphics/SVG/1.1/DTD/svg11.dtd">
<svg version="1.1"
	 id="svg2" xmlns:svg="http://www.w3.org/2000/svg" xmlns:rdf="http://www.w3.org/1999/02/22-rdf-syntax-ns#" xmlns:cc="http://creativecommons.org/ns#" xmlns:dc="http://purl.org/dc/elements/1.1/"
	 xmlns="http://www.w3.org/2000/svg" xmlns:xlink="http://www.w3.org/1999/xlink" x="0px" y="0px" width="650px" height="144.717px"
	 viewBox="43.367 71.378 650 144.717" enable-background="new 43.367 71.378 650 144.717" xml:space="preserve">
<path id="path3403" fill="none" stroke="#000000" stroke-miterlimit="10" d="M113.02,214.526
	c-10.546-2.292-19.937-10.433-25.3-21.938c-3.633-7.781-4.634-12.833-4.634-23.349v-7.494H43.367v-36.037h39.719v-17.279H43.367
	V72.385H202.23v36.044H130.52v17.279h71.711v36.037h-71.752l0.114,6.561c0.113,6.554,0.113,6.565,1.18,8.092
	c0.58,0.845,1.657,1.903,2.387,2.358l1.331,0.826l33.374,0.101l33.368,0.097v35.29l-43.483-0.029
	C124.067,215.016,114.808,214.915,113.02,214.526L113.02,214.526z"/>
<path id="path3410" fill="none" stroke="#000000" stroke-miterlimit="10" d="M351.9,133.065h28.317v26.479h42.292v-26.479h42.288
	v20.607c0,19.728-0.031,20.667-0.719,22.02c-0.904,1.778-2.587,3.203-4.347,3.693c-0.85,0.234-7.811,0.377-18.373,0.377
	l-17.012,0.006v35.302h27.706c31.65,0,30.25,0.125,37.199-3.286c11.032-5.417,19.236-16.581,22.464-30.543
	c0.556-2.412,0.651-5.608,0.789-25.468l0.155-22.708h29.729V97.391h-29.782V72.385h-47.811v25.006H422.51V72.385h-42.292v25.006
	H351.9"/>
<path id="path3408" fill="none" stroke="#000000" stroke-miterlimit="10" d="M542.391,159.543h42.294v-51.486h61.056l-0.103,33.614
	l-0.096,33.613l-1.143,1.413c-0.629,0.778-1.7,1.748-2.388,2.149c-1.202,0.711-2.012,0.741-23.037,0.836l-21.788,0.109v35.295
	l32.817-0.101l32.825-0.103l3.771-1.329c11.275-3.975,20.165-13.473,24.372-26.042c2.298-6.86,2.196-3.915,2.196-62.021V72.385
	H542.391v87.006V159.543z"/>
<path id="path3401" fill="none" stroke="#000000" stroke-miterlimit="10" d="M351.9,72.385h-47.434v101.75l-0.856,1.623
	c-0.472,0.892-1.561,2.113-2.424,2.723l-1.567,1.102l-23.135,0.101l-23.138,0.103v17.65v17.651l67.849-0.204l3.778-1.329
	c5.092-1.796,9.09-4.274,13.172-8.152c6.668-6.345,11.121-14.474,13.012-23.768c0.701-3.413,0.742-5.027,0.742-26.102
	C351.9,127.817,351.9,100.101,351.9,72.385L351.9,72.385z"/>
<path id="path22" fill="none" stroke="#000000" stroke-miterlimit="10" d="M210.688,115.965v-43.58h42.292v87.159h-42.292V115.965z"
	/>
</svg>
